<svg xmlns="http://www.w3.org/2000/svg" width="24" height="24" fill="currentcolor" class="icon-book-solid" viewBox="0 0 24 24">
  <path d="M20.75 15.125C20.75 15.7109 20.4766 16.1797 20.125 16.5703V19.7344C20.4766 19.9688 20.75 20.3594 20.75 20.7891C20.75 21.4531 20.1641 22 19.5 22H7C4.89062 22 3.25 20.3594 3.25 18.25V5.75C3.25 3.67969 4.89062 2 7 2H18.875C19.8906 2 20.75 2.85938 20.75 3.875V15.125ZM8.83594 7C8.52344 7 8.25 7.3125 8.25 7.625C8.25 7.97656 8.52344 8.25 8.83594 8.25H16.375C16.6875 8.25 17 7.97656 17 7.625C17 7.3125 16.6875 7 16.3359 7H8.83594ZM8.83594 9.5C8.52344 9.5 8.25 9.8125 8.25 10.125C8.25 10.4766 8.52344 10.75 8.83594 10.75H16.375C16.6875 10.75 17 10.4766 17 10.125C17 9.8125 16.6875 9.5 16.3359 9.5H8.83594ZM18.25 19.5V17H7C6.29688 17 5.75 17.5859 5.75 18.25C5.75 18.9531 6.29688 19.5 7 19.5H18.25Z"/>
</svg>