<svg xmlns="http://www.w3.org/2000/svg" width="24" height="24" fill="currentcolor" class="icon-book-open-simple-outline" viewBox="0 0 24 24">
  <path d="M22.3438 4.22655C23.1641 4.53905 23.75 5.3203 23.75 6.21874V17.625C23.75 18.25 23.4375 18.875 22.8906 19.2656C22.3438 19.6562 21.6406 19.8125 21.0156 19.6172C16.4062 18.3672 13.125 20.5156 12.9688 20.5937C12.8125 20.7109 12.5781 20.75 12.4609 20.75C12.3047 20.75 12.1094 20.7109 11.9531 20.5937C11.8359 20.5156 8.55469 18.3672 3.94531 19.6172C3.28125 19.8125 2.57812 19.6562 2.03125 19.2656C1.52344 18.875 1.25 18.25 1.25 17.625V6.21874C1.25 5.3203 1.79688 4.53905 2.61719 4.22655C4.45312 3.56249 6.13281 3.24999 7.69531 3.28905C9.96094 3.28905 11.6797 3.95311 12.5 4.34374C13.2812 3.95311 15 3.28905 17.2656 3.28905C18.7891 3.24999 20.5078 3.56249 22.3438 4.22655ZM11.5625 18.2891V5.98436C10.8594 5.67186 9.49219 5.16405 7.65625 5.16405C6.36719 5.12499 4.84375 5.43749 3.24219 5.98436C3.16406 6.02343 3.125 6.10155 3.125 6.21874V17.625C3.125 17.625 3.125 17.7031 3.20312 17.7812C3.20312 17.7812 3.32031 17.8594 3.4375 17.8203C4.64844 17.4687 5.78125 17.3516 6.79688 17.3516C8.82812 17.3516 10.4688 17.8594 11.5625 18.2891ZM21.875 17.625V6.21874C21.875 6.10155 21.7969 6.02343 21.7188 5.98436C20.1172 5.43749 18.5938 5.12499 17.3047 5.16405C15.4688 5.16405 14.1016 5.67186 13.3984 5.98436V18.2891C15.0781 17.625 17.9688 16.8437 21.5234 17.8203C21.6406 17.8594 21.7578 17.7812 21.7969 17.7812C21.875 17.7031 21.875 17.625 21.875 17.625Z"/>
</svg>