<svg xmlns="http://www.w3.org/2000/svg" width="24" height="24" fill="currentcolor" class="icon-book-open-solid" viewBox="0 0 24 24">
  <path d="M20.4 3.26959V16.2858L12.6 18.0893V3.03435L19.0125 2.01501C19.725 1.89739 20.4 2.48548 20.4 3.26959ZM11.4 3.03435V18.0893L3.6 16.2858V3.26959C3.6 2.48548 4.2375 1.89739 4.95 2.01501L11.4 3.03435ZM22.5 3.26959C23.25 3.07356 24 3.70085 24 4.52416V18.2853C24 18.8734 23.5875 19.383 23.025 19.5007L12.225 21.9706C12.075 22.0098 11.8875 22.0098 11.7375 21.9706L0.9375 19.5007C0.375 19.383 0 18.8734 0 18.2853V4.52416C0 3.70085 0.7125 3.07356 1.4625 3.26959L2.4 3.54402V16.2858C2.4 16.8739 2.775 17.3836 3.3375 17.5012L12 19.5399L20.625 17.5012C21.1875 17.3836 21.6 16.8347 21.6 16.2858V3.54402L22.5 3.26959Z"/>
</svg>