<svg xmlns="http://www.w3.org/2000/svg" width="24" height="24" fill="currentcolor" class="icon-book-open-simple-solid" viewBox="0 0 24 24">
  <path d="M6.875 3.28907C9.6875 3.32814 11.5234 4.57814 11.6016 4.6172C11.7578 4.73439 11.875 4.9297 11.875 5.16407V20.1641C11.875 20.3203 11.7188 20.75 11.25 20.75C11.0938 20.75 10.9766 20.7109 10.8594 20.6328C10.7031 20.5156 7.03125 17.7813 2.10938 20.0859C1.67969 20.2813 1.25 19.9688 1.25 19.5391V5.5547C1.25 5.04689 1.52344 4.6172 1.95312 4.42189C3.71094 3.64064 5.39062 3.25001 6.875 3.28907ZM23.0078 4.42189C23.4375 4.6172 23.7109 5.04689 23.75 5.5547V19.5391C23.75 19.9688 23.2812 20.2813 22.8516 20.0859C17.9297 17.7813 14.2578 20.5156 14.1016 20.6328C13.9844 20.7109 13.8672 20.75 13.75 20.75C13.2422 20.75 13.125 20.3203 13.125 20.125V5.16407C13.125 4.9297 13.2031 4.73439 13.3594 4.6172C13.4766 4.57814 15.2734 3.32814 18.0859 3.28907C19.5312 3.25001 21.25 3.64064 23.0078 4.42189Z"/>
</svg>