<svg xmlns="http://www.w3.org/2000/svg" width="24" height="24" fill="currentcolor" class="icon-book-outline" viewBox="0 0 24 24">
  <path d="M20.75 15.75C20.75 16.5703 20.2031 17.2734 19.5 17.5469V20.125H19.8125C20.3203 20.125 20.75 20.5547 20.75 21.0625C20.75 21.6094 20.3203 22 19.8125 22H6.375C4.61719 22 3.25 20.6328 3.25 18.875V5.125C3.25 3.40625 4.61719 2 6.375 2H18.875C19.8906 2 20.75 2.85938 20.75 3.875V15.75ZM17.625 20.125V17.625H6.375C5.67188 17.625 5.125 18.2109 5.125 18.875C5.125 19.5781 5.67188 20.125 6.375 20.125H17.625ZM18.875 15.75V3.875H6.375C5.67188 3.875 5.125 4.46094 5.125 5.125V16.0234C5.47656 15.8672 5.90625 15.75 6.375 15.75H18.875ZM9.1875 8.25C8.64062 8.25 8.25 7.85938 8.25 7.3125C8.25 6.80469 8.64062 6.375 9.1875 6.375H16.0625C16.5703 6.375 17 6.80469 17 7.3125C17 7.85938 16.5703 8.25 16.0625 8.25H9.1875ZM9.1875 11.375C8.64062 11.375 8.25 10.9844 8.25 10.4375C8.25 9.92969 8.64062 9.5 9.1875 9.5H16.0625C16.5703 9.5 17 9.92969 17 10.4375C17 10.9844 16.5703 11.375 16.0625 11.375H9.1875Z"/>
</svg>