<svg xmlns="http://www.w3.org/2000/svg" width="24" height="24" fill="currentcolor" class="icon-brackets-curly-solid" viewBox="0 0 24 24">
  <path d="M8.52277 3.25C9.18625 3.25 9.77168 3.83594 9.77168 4.5C9.77168 5.20312 9.18625 5.75 8.52277 5.75H7.27385C6.57134 5.75 6.02493 6.33594 6.02493 7V8.48438C6.02493 9.46094 5.59562 10.4375 4.89311 11.1406L4.03448 12L4.89311 12.8984C5.59562 13.6016 6.02493 14.5781 6.02493 15.5547V17C6.02493 17.7031 6.57134 18.25 7.27385 18.25H8.52277C9.18625 18.25 9.77168 18.8359 9.77168 19.5C9.77168 20.2031 9.18625 20.75 8.52277 20.75H7.27385C5.16631 20.75 3.5271 19.1094 3.5271 17V15.5547C3.5271 15.2031 3.37099 14.8906 3.13682 14.6562L1.38053 12.8984C0.873157 12.4297 0.873157 11.6094 1.38053 11.1406L3.13682 9.38281C3.37099 9.14844 3.5271 8.79688 3.5271 8.48438V7C3.5271 4.92969 5.16631 3.25 7.27385 3.25H8.52277ZM22.6195 11.1406C23.1268 11.6094 23.1268 12.4297 22.6195 12.8984L20.8632 14.6562C20.629 14.8906 20.5119 15.2422 20.5119 15.5547V17C20.5119 19.1094 18.8337 20.75 16.7652 20.75H15.4772C14.8137 20.75 14.2673 20.125 14.2673 19.5C14.2673 18.8359 14.8137 18.25 15.5163 18.25H16.7652C17.4287 18.25 18.0141 17.7031 18.0141 17V15.5547C18.0141 14.5391 18.4044 13.6016 19.1069 12.8984L19.9655 12L19.1069 11.1406C18.4044 10.4375 18.0141 9.46094 18.0141 8.48438V7C18.0141 6.33594 17.4287 5.75 16.7652 5.75H15.4772C14.8137 5.75 14.2673 5.125 14.2673 4.5C14.2673 3.83594 14.8137 3.25 15.5163 3.25H16.7652C18.8337 3.25 20.5119 4.92969 20.5119 7V8.48438C20.5119 8.79688 20.629 9.14844 20.8632 9.38281L22.6195 11.1406Z"/>
</svg>