<svg xmlns="http://www.w3.org/2000/svg" width="24" height="24" fill="currentcolor" class="icon-chevron-sort-solid" viewBox="0 0 24 24">
  <path d="M18.8031 15.3043C19.2847 14.8989 20.1272 14.8989 20.6088 15.3043 21.1304 15.6786 21.1305 16.3334 20.6088 16.7076L12.9027 22.6959C12.4211 23.1012 11.5786 23.1013 11.0971 22.6959L3.39101 16.7076C2.86963 16.3334 2.8697 15.6785 3.39101 15.3043 3.87261 14.8988 4.71604 14.8988 5.19765 15.3043L12.0199 20.5748 18.8031 15.3043ZM11.0971 1.30429C11.5786.898864 12.4211.898925 12.9027 1.30429L20.6088 7.29257C21.1304 7.66685 21.1305 8.32165 20.6088 8.69589 20.1272 9.10129 19.2848 9.10117 18.8031 8.69589L12.0199 3.42539 5.19765 8.69589C4.71604 9.10135 3.87261 9.10135 3.39101 8.69589 2.86963 8.32168 2.8697 7.66682 3.39101 7.29257L11.0971 1.30429Z"/>
</svg>