<svg xmlns="http://www.w3.org/2000/svg" width="24" height="24" fill="currentcolor" class="icon-chevron-sort-outline" viewBox="0 0 24 24">
  <path d="M3.52146 14.7246C3.87535 14.4251 4.46511 14.4252 4.85838 14.7246L11.7412 20.585 18.624 14.7578C18.9779 14.4251 19.5677 14.4251 19.9609 14.7578 20.3148 15.0575 20.3147 15.5568 19.9609 15.8565L12.3701 22.25C12.0161 22.5829 11.4262 22.583 11.0722 22.25L3.52146 15.8565C3.12841 15.5568 3.12825 15.0575 3.52146 14.7246ZM11.0722 1.72463C11.4261 1.42503 12.0161 1.42522 12.3701 1.72463L19.9609 8.11818C20.3149 8.45115 20.3148 8.95032 19.9609 9.25002 19.5676 9.583 18.978 9.583 18.624 9.25002L11.7412 3.42287 4.85838 9.25002C4.4897 9.56214 3.9487 9.58169 3.5908 9.30861L3.45213 9.19142C3.12985 8.88851 3.15288 8.43225 3.52146 8.15138L11.0722 1.72463Z"/>
</svg>