<svg xmlns="http://www.w3.org/2000/svg" width="24" height="24" fill="currentcolor" class="icon-circle-small-outline" viewBox="0 0 24 24">
  <path d="M16.375 11.9805C16.375 10.418 15.5156 9.01172 14.1875 8.23047C12.8203 7.41016 11.1406 7.41016 9.8125 8.23047C8.44531 9.01172 7.625 10.418 7.625 11.9805C7.625 13.582 8.44531 14.9883 9.8125 15.7695C11.1406 16.5898 12.8203 16.5898 14.1875 15.7695C15.5156 14.9883 16.375 13.582 16.375 11.9805ZM5.75 11.9805C5.75 9.75391 6.92188 7.72266 8.875 6.58984C10.7891 5.45703 13.1719 5.45703 15.125 6.58984C17.0391 7.72266 18.25 9.75391 18.25 11.9805C18.25 14.2461 17.0391 16.2773 15.125 17.4102C13.1719 18.543 10.7891 18.543 8.875 17.4102C6.92188 16.2773 5.75 14.2461 5.75 11.9805Z"/>
</svg>