<svg xmlns="http://www.w3.org/2000/svg" width="24" height="24" fill="currentcolor" class="icon-clipboard-solid" viewBox="0 0 24 24">
  <path d="M18.125 4.5C19.1406 4.5 20 5.35938 20 6.375V20.125C20 21.1797 19.1406 22 18.125 22H6.875C5.82031 22 5 21.1797 5 20.125V6.375C5 5.35938 5.82031 4.5 6.875 4.5H8.94531C9.49219 3.05469 10.8594 2 12.5 2C14.1016 2 15.4688 3.05469 16.0156 4.5H18.125ZM12.5 4.5C11.7969 4.5 11.25 5.08594 11.25 5.75C11.25 6.0341 11.25 6.5 11.25 6.5C12.0833 6.5 12.9167 6.5 13.75 6.5C13.75 6.5 13.75 6.0341 13.75 5.75C13.75 5.08594 13.1641 4.5 12.5 4.5ZM15.625 7.75C15.9375 7.75 16.25 7.47656 16.25 7.125C16.25 6.8125 15.9375 6.5 15.625 6.5H9.375C9.02344 6.5 8.75 6.8125 8.75 7.125C8.75 7.47656 9.02344 7.75 9.375 7.75H15.625Z"/>
</svg>