<svg xmlns="http://www.w3.org/2000/svg" width="24" height="24" fill="currentcolor" class="icon-clipboard-outline" viewBox="0 0 24 24">
  <path d="M17.5 4.5C18.8672 4.5 20 5.63281 20 7V19.5C20 20.9062 18.8672 22 17.5 22H7.5C6.09375 22 5 20.9062 5 19.5V7C5 5.63281 6.09375 4.5 7.5 4.5H9.41406C9.72656 3.09375 10.9766 2 12.5 2C13.9844 2 15.2344 3.09375 15.5469 4.5H17.5ZM12.5 3.875C11.9531 3.875 11.5625 4.30469 11.5625 4.8125C11.5625 5.35938 11.9531 5.75 12.5 5.75C13.0078 5.75 13.4375 5.35938 13.4375 4.8125C13.4375 4.30469 13.0078 3.875 12.5 3.875ZM18.125 19.5V7C18.125 6.6875 17.8125 6.375 17.5 6.375H16.7578C16.8359 6.60938 16.875 6.80469 16.875 7V7.625C16.875 7.97656 16.5625 8.25 16.25 8.25H8.75C8.39844 8.25 8.125 7.97656 8.125 7.625V7C8.125 6.80469 8.125 6.60938 8.20312 6.375H7.5C7.14844 6.375 6.875 6.6875 6.875 7V19.5C6.875 19.8516 7.14844 20.125 7.5 20.125H17.5C17.8125 20.125 18.125 19.8516 18.125 19.5Z"/>
</svg>