<svg xmlns="http://www.w3.org/2000/svg" width="24" height="24" fill="currentcolor" class="icon-code-solid" viewBox="0 0 24 24">
  <path d="M4.25781 12L9.60938 17.3906C10.1172 17.8594 10.1172 18.6797 9.60938 19.1484C9.14062 19.6562 8.32031 19.6562 7.85156 19.1484L1.60156 12.8984C1.09375 12.4297 1.09375 11.6094 1.60156 11.1406L7.85156 4.89062C8.32031 4.38281 9.14062 4.38281 9.60938 4.89062C10.1172 5.35938 10.1172 6.17969 9.60938 6.64844L4.25781 12ZM15.3516 6.64844C14.8438 6.17969 14.8438 5.35938 15.3516 4.89062C15.8203 4.38281 16.6406 4.38281 17.1094 4.89062L23.3594 11.1406C23.8672 11.6094 23.8672 12.4297 23.3594 12.8984L17.1094 19.1484C16.6406 19.6562 15.8203 19.6562 15.3516 19.1484C14.8438 18.6797 14.8438 17.8594 15.3516 17.3906L20.7031 12L15.3516 6.64844Z"/>
</svg>