<svg xmlns="http://www.w3.org/2000/svg" width="24" height="24" fill="currentcolor" class="icon-file-text-outline" viewBox="0 0 24 24">
  <path d="M19.2578 5.67188C19.7266 6.14062 20 6.76562 20 7.42969V19.5C20 20.9062 18.8672 22 17.5 22H7.5C6.09375 22 5 20.9062 5 19.5V4.5C5 3.13281 6.09375 2 7.5 2H14.5703C15.2344 2 15.8594 2.27344 16.3281 2.74219L19.2578 5.67188ZM18.125 19.5H18.0859V8.25H15C14.2969 8.25 13.75 7.70312 13.75 7V3.91406H7.5C7.14844 3.91406 6.875 4.1875 6.875 4.53906V19.5C6.875 19.8516 7.14844 20.125 7.5 20.125H17.5C17.8125 20.125 18.125 19.8516 18.125 19.5ZM8.75 12.9375C8.75 12.4297 9.14062 12 9.6875 12H15.3125C15.8203 12 16.25 12.4297 16.25 12.9375C16.25 13.4844 15.8203 13.875 15.3125 13.875H9.6875C9.14062 13.875 8.75 13.4844 8.75 12.9375ZM15.3125 15.75C15.8203 15.75 16.25 16.1797 16.25 16.6875C16.25 17.2344 15.8203 17.625 15.3125 17.625H9.6875C9.14062 17.625 8.75 17.2344 8.75 16.6875C8.75 16.1797 9.14062 15.75 9.6875 15.75H15.3125Z"/>
</svg>