<svg xmlns="http://www.w3.org/2000/svg" width="24" height="24" fill="currentcolor" class="icon-file-text-solid" viewBox="0 0 24 24">
  <path d="M15 2L20 7H15V2ZM13.75 7C13.75 7.70312 14.2969 8.25 15 8.25H20V20.125C20 21.1797 19.1406 22 18.125 22H6.875C5.82031 22 5 21.1797 5 20.125V3.875C5 2.85938 5.82031 2 6.875 2H13.75V7ZM15.625 18.25C15.9375 18.25 16.25 17.9766 16.25 17.625C16.25 17.3125 15.9375 17 15.625 17H9.375C9.02344 17 8.75 17.3125 8.75 17.625C8.75 17.9766 9.02344 18.25 9.375 18.25H15.625ZM15.625 15.75C15.9375 15.75 16.25 15.4766 16.25 15.125C16.25 14.8125 15.9375 14.5 15.625 14.5H9.375C9.02344 14.5 8.75 14.8125 8.75 15.125C8.75 15.4766 9.02344 15.75 9.375 15.75H15.625ZM16.25 12.625C16.25 12.3125 15.9375 12 15.625 12H9.375C9.02344 12 8.75 12.3125 8.75 12.625C8.75 12.9766 9.02344 13.25 9.375 13.25H15.625C15.9375 13.25 16.25 12.9766 16.25 12.625Z"/>
</svg>