<svg xmlns="http://www.w3.org/2000/svg" width="24" height="24" fill="currentcolor" class="icon-joystick-outline" viewBox="0 0 24 24">
  <path d="M18.25 15.75C19.6172 15.75 20.75 16.8828 20.75 18.2891V19.5391C20.75 20.9062 19.6172 22 18.25 22H5.75C4.34375 22 3.25 20.9062 3.25 19.5V18.2891C3.25 16.8828 4.34375 15.75 5.75 15.75C5.75 15.0859 6.29688 14.5391 7 14.5391C7.66406 14.5391 8.25 15.0859 8.25 15.75H11.0625V10.6719C9.03125 10.2031 7.625 8.44531 7.625 6.375C7.625 3.32812 10.3203 2.03906 12 2.03906C15.3594 2.03906 16.375 4.92969 16.375 6.375C16.375 8.40625 14.9297 10.2031 12.9375 10.6719V15.75H18.25ZM9.5 6.41406C9.5 7.78125 10.5938 8.91406 12 8.91406C13.3672 8.91406 14.5 7.78125 14.5 6.41406C14.5 5.00781 13.3672 3.91406 12 3.91406C10.5938 3.91406 9.5 5.00781 9.5 6.41406ZM18.875 19.5V18.2891C18.875 17.9766 18.5625 17.6641 18.25 17.6641H5.75C5.39844 17.6641 5.125 17.9375 5.125 18.2891V19.5C5.125 19.8125 5.39844 20.125 5.75 20.125H18.25C18.5625 20.125 18.875 19.8516 18.875 19.5Z"/>
</svg>