<svg xmlns="http://www.w3.org/2000/svg" width="24" height="24" fill="currentcolor" class="icon-lightning-outline" viewBox="0 0 24 24">
  <path d="M16.2891 2.03906C17.0312 2.03906 17.5781 2.74219 17.3828 3.44531L15.2734 10.75H18.6328C19.375 10.75 20 11.375 20 12.1172C20 12.5469 19.8047 12.8984 19.4922 13.1719L9.375 21.7656C9.17969 21.9219 8.94531 22 8.67188 22C7.92969 22 7.38281 21.2969 7.57812 20.5938L9.6875 13.25H6.28906C5.58594 13.25 5 12.6641 5 11.9609C5 11.5703 5.15625 11.1797 5.42969 10.9453L15.5859 2.27344C15.7812 2.11719 16.0156 2 16.2891 2V2.03906ZM14.8828 5.32031L7.8125 11.375H10.9375C11.2109 11.375 11.4844 11.5312 11.6797 11.7656C11.8359 12 11.9141 12.3125 11.8359 12.5859L10.0781 18.7188L17.2266 12.625H14.0625C13.75 12.625 13.4766 12.5078 13.2812 12.2734C13.125 12.0391 13.0469 11.7266 13.125 11.4531L14.8828 5.32031Z"/>
</svg>