<svg xmlns="http://www.w3.org/2000/svg" width="24" height="24" fill="currentcolor" class="icon-list-square-solid" viewBox="0 0 24 24">
  <path d="M3.25 5.75C3.25 4.38281 4.34375 3.25 5.75 3.25H18.25C19.6172 3.25 20.75 4.38281 20.75 5.75V18.25C20.75 19.6562 19.6172 20.75 18.25 20.75H5.75C4.34375 20.75 3.25 19.6562 3.25 18.25V5.75ZM8.25 12C8.25 11.3359 7.66406 10.75 7 10.75C6.29688 10.75 5.75 11.3359 5.75 12C5.75 12.7031 6.29688 13.25 7 13.25C7.66406 13.25 8.25 12.7031 8.25 12ZM8.25 8.25C8.25 7.58594 7.66406 7 7 7C6.29688 7 5.75 7.58594 5.75 8.25C5.75 8.95312 6.29688 9.5 7 9.5C7.66406 9.5 8.25 8.95312 8.25 8.25ZM8.25 15.75C8.25 15.0859 7.66406 14.5 7 14.5C6.29688 14.5 5.75 15.0859 5.75 15.75C5.75 16.4531 6.29688 17 7 17C7.66406 17 8.25 16.4531 8.25 15.75ZM10.75 7.3125C10.2031 7.3125 9.8125 7.74219 9.8125 8.25C9.8125 8.79688 10.2031 9.1875 10.75 9.1875H17C17.5078 9.1875 17.9375 8.79688 17.9375 8.25C17.9375 7.74219 17.5078 7.3125 17 7.3125H10.75ZM10.75 11.0625C10.2031 11.0625 9.8125 11.4922 9.8125 12C9.8125 12.5469 10.2031 12.9375 10.75 12.9375H17C17.5078 12.9375 17.9375 12.5469 17.9375 12C17.9375 11.4922 17.5078 11.0625 17 11.0625H10.75ZM10.75 14.8125C10.2031 14.8125 9.8125 15.2422 9.8125 15.75C9.8125 16.2969 10.2031 16.6875 10.75 16.6875H17C17.5078 16.6875 17.9375 16.2969 17.9375 15.75C17.9375 15.2422 17.5078 14.8125 17 14.8125H10.75Z"/>
</svg>