<svg xmlns="http://www.w3.org/2000/svg" width="24" height="24" fill="currentcolor" class="icon-microchip-1" viewBox="0 0 24 24">
  <path d="M8.25 15.75V8.25H15.75V15.75H8.25ZM19.5 8.875V11.375H21.375C21.6875 11.375 22 11.6875 22 12C22 12.3516 21.6875 12.625 21.375 12.625H19.5V15.125H21.375C21.6875 15.125 22 15.4375 22 15.75C22 16.1016 21.6875 16.375 21.375 16.375H19.5V17C19.5 18.4062 18.3672 19.5 17 19.5H16.375V21.375C16.375 21.7266 16.0625 22 15.75 22C15.3984 22 15.125 21.7266 15.125 21.375V19.5H12.625V21.375C12.625 21.7266 12.3125 22 12 22C11.6484 22 11.375 21.7266 11.375 21.375V19.5H8.875V21.375C8.875 21.7266 8.5625 22 8.25 22C7.89844 22 7.625 21.7266 7.625 21.375V19.5H7C5.59375 19.5 4.5 18.4062 4.5 17V16.375H2.625C2.27344 16.375 2 16.1016 2 15.75C2 15.4375 2.27344 15.125 2.625 15.125H4.5V12.625H2.625C2.27344 12.625 2 12.3516 2 12C2 11.6875 2.27344 11.375 2.625 11.375H4.5V8.875H2.625C2.27344 8.875 2 8.60156 2 8.25C2 7.9375 2.27344 7.625 2.625 7.625H4.5V7C4.5 5.63281 5.59375 4.5 7 4.5H7.625V2.625C7.625 2.3125 7.89844 2 8.25 2C8.5625 2 8.875 2.3125 8.875 2.625V4.5H11.375V2.625C11.375 2.3125 11.6484 2 12 2C12.3125 2 12.625 2.3125 12.625 2.625V4.5H15.125V2.625C15.125 2.3125 15.3984 2 15.75 2C16.0625 2 16.375 2.3125 16.375 2.625V4.5H17C18.3672 4.5 19.5 5.63281 19.5 7V7.625H21.375C21.6875 7.625 22 7.9375 22 8.25C22 8.60156 21.6875 8.875 21.375 8.875H19.5ZM17 16.375V7.625C17 7.3125 16.6875 7 16.375 7H7.625C7.27344 7 7 7.3125 7 7.625V16.375C7 16.7266 7.27344 17 7.625 17H16.375C16.6875 17 17 16.7266 17 16.375Z"/>
</svg>