<svg xmlns="http://www.w3.org/2000/svg" width="24" height="24" fill="currentcolor" class="icon-music-solid" viewBox="0 0 24 24">
  <path d="M21.9609 16.375C21.9609 18.0938 20.2812 19.5 18.25 19.5C16.1797 19.5 14.5 18.0938 14.5 16.375C14.5 14.6562 16.1797 13.2891 18.25 13.2891C18.6797 13.2891 19.0703 13.3672 19.5 13.4844V7.82031L9.5 10.75L9.46094 18.9141C9.46094 20.6328 7.82031 22 5.71094 22C3.60156 22 2 20.6328 2 18.875C2 17.1562 3.64062 15.7891 5.71094 15.7891C6.14062 15.7891 6.57031 15.8672 6.96094 15.9844V6.96094C6.96094 6.45312 7.35156 5.90625 7.82031 5.75L20.2812 2.07812C20.4375 2.03906 20.6328 2 20.75 2C21.4141 2 21.9609 2.58594 22 3.25L21.9609 16.375Z"/>
</svg>