<svg xmlns="http://www.w3.org/2000/svg" width="24" height="24" fill="currentcolor" class="icon-plug-solid" viewBox="0 0 24 24">
  <path d="M8.75 2C9.41406 2 10 2.58594 10 3.25V7H7.5V3.25C7.5 2.58594 8.04688 2 8.75 2ZM16.25 2C16.9141 2 17.5 2.58594 17.5 3.25V7H15V3.25C15 2.58594 15.5469 2 16.25 2ZM18.75 8.25C19.4141 8.25 20 8.83594 20 9.5C20 10.2031 19.4141 10.75 18.75 10.75V12C18.75 15.0469 16.6016 17.5469 13.75 18.1328V22H11.25V18.1328C8.35938 17.5469 6.25 15.0469 6.25 12V10.75C5.54688 10.75 5 10.2031 5 9.5C5 8.83594 5.54688 8.25 6.25 8.25H18.75Z"/>
</svg>