<svg xmlns="http://www.w3.org/2000/svg" width="24" height="24" fill="currentcolor" class="icon-tools-solid" viewBox="0 0 24 24">
  <path d="M14.9297 10.7891C14.6172 10.7891 14.3047 10.8281 13.9922 10.9062L10.75 7.66406C10.75 7.35156 10.75 7.03906 10.7891 6.72656C11.1406 4.53906 12.8203 2.70312 15.0078 2.19531C15.9453 1.96094 16.8438 1.96094 17.6641 2.15625C18.0938 2.27344 18.25 2.82031 17.9375 3.13281L15.2422 5.82812V8.71875H18.1719L20.8672 6.0625C21.1797 5.75 21.7266 5.86719 21.8438 6.29688C22.0391 7.11719 22.0391 8.05469 21.8047 8.99219C21.4141 10.6719 20.2031 12.0391 18.6406 12.7422L17.8594 12C17.0781 11.2188 16.0625 10.7891 14.9297 10.7891ZM17 12.8984L21.5703 17.3906C22.1172 17.9766 22.1172 18.9141 21.5703 19.4609L19.5 21.5312C18.9141 22.0781 18.0156 22.0781 17.4297 21.5312L12.8594 16.9609C11.9609 16.0625 11.8047 14.6953 12.3125 13.6016L8.17188 9.46094H5.75L2 4.5L4.5 2L9.46094 5.75V8.17188L13.6406 12.3516C14.7344 11.8438 16.0625 12 17 12.8984ZM10.8672 13.9922C10.6719 14.8906 10.7891 15.7891 11.1406 16.6094L6.49219 21.2578C5.98438 21.7656 5.28125 22 4.61719 22C3.95312 22 3.25 21.7656 2.74219 21.2578C1.72656 20.2031 1.72656 18.5625 2.74219 17.5078L8.5625 11.6875L10.8672 13.9922ZM4.5 20.4375C5.00781 20.4375 5.4375 20.0469 5.4375 19.5C5.4375 18.9922 5.00781 18.5625 4.5 18.5625C3.95312 18.5625 3.5625 18.9922 3.5625 19.5C3.5625 20.0469 3.95312 20.4375 4.5 20.4375Z"/>
</svg>