<svg xmlns="http://www.w3.org/2000/svg" width="24" height="24" fill="currentcolor" class="icon-tools-outline" viewBox="0 0 24 24">
  <path d="M10.711 5.78906V5.125H10.6719C10.9453 4.65625 11.2578 4.22656 11.6875 3.83594C13.1719 2.3125 15.3203 1.72656 17.3906 2.23438C17.8594 2.35156 18.25 2.70312 18.3672 3.21094C18.5235 3.67969 18.3672 4.1875 18.0547 4.5L15.75 6.76562L15.9453 8.05469L17.2344 8.25L19.5 5.94531C19.8125 5.63281 20.3203 5.47656 20.8281 5.59375C21.2969 5.75 21.6485 6.10156 21.7656 6.60938C22.2735 8.64062 21.6485 10.8672 20.1641 12.3125C19.8125 12.6641 19.4219 12.9766 19.0313 13.2109L17.8203 12C17.7422 11.9609 17.6641 11.8828 17.625 11.8438C18.0547 11.6484 18.4844 11.375 18.836 10.9844C19.6563 10.2031 20.086 9.10938 20.086 8.01562L17.8203 10.2422L14.3047 9.65625L13.7188 6.14062L15.9844 3.91406H15.9453C14.8516 3.91406 13.7969 4.30469 13.0156 5.125C12.0391 6.10156 11.6094 7.46875 11.8828 8.83594L10.711 7.66406V5.78906ZM6.14064 19.7344L10.75 15.0469C10.75 15.7891 10.9844 16.4922 11.375 17.1172L7.4297 21.0234C6.8047 21.6484 5.98439 21.9609 5.16408 21.9609C4.34376 21.9609 3.52345 21.6484 2.93751 21.0234C2.31251 20.4375 1.96095 19.5781 2.00001 18.7578C2.00001 17.9766 2.31251 17.1562 2.93751 16.5312L8.17189 11.2969L9.50001 12.625L4.22658 17.9375C3.9922 18.1719 3.83595 18.4844 3.83595 18.8359C3.83595 19.1875 3.9922 19.5 4.22658 19.7344C4.73439 20.2422 5.63283 20.2422 6.14064 19.7344ZM21.5703 17.4688C22.1172 18.0547 22.1172 18.9531 21.5703 19.4609L19.5 21.5312C18.9141 22.0781 18.0156 22.0781 17.4297 21.5312L12.8594 16.9609C11.961 16.0625 11.8047 14.6953 12.3125 13.6016L8.17189 9.46094H5.75001L2.00001 4.5L4.50001 2L9.46095 5.75V8.17188L13.6406 12.3516C14.7344 11.8047 16.0625 12 17 12.8984L21.5703 17.4688Z"/>
</svg>