<svg xmlns="http://www.w3.org/2000/svg" width="24" height="24" fill="currentcolor" class="icon-book-open-outline" viewBox="0 0 24 24">
  <path d="M22.5 3.26832C23.25 3.07228 24 3.69961 24 4.52298V18.285C24 18.8732 23.5875 19.3829 23.025 19.5005L12.225 21.9706C12.075 22.0098 11.8875 22.0098 11.7375 21.9706L0.9375 19.5005C0.375 19.3829 0 18.8732 0 18.285V4.52298C0 3.69961 0.7125 3.07228 1.4625 3.26832L1.8 3.38595V17.8145L12 20.167L22.2 17.8145V3.38595L22.5 3.26832ZM3.6375 16.7167C3.2625 16.5991 3 16.207 3 15.7757V2.91545C3 2.64099 3.1125 2.40574 3.3 2.2097C3.525 2.01366 3.7875 1.97445 4.05 2.01366L12 3.54278L19.9125 2.01366C20.175 1.97445 20.4375 2.01366 20.6625 2.2097C20.85 2.40574 21 2.64099 21 2.91545V15.7757C21 16.207 20.7 16.5991 20.325 16.7167L12.225 18.9124C12.15 18.9124 12.075 18.9124 12 18.9124C11.8875 18.9124 11.8125 18.9124 11.7375 18.9124L3.6375 16.7167ZM12.9 5.26794V16.7559L19.2 15.07V4.05248L12.9 5.26794ZM4.8 4.05248V15.07L11.1 16.7559V5.26794L4.8 4.05248Z"/>
</svg>