<svg xmlns="http://www.w3.org/2000/svg" width="24" height="24" fill="currentcolor" class="icon-brackets-curly-outline" viewBox="0 0 24 24">
  <path d="M8.8125 3.25C9.32031 3.25 9.75 3.67969 9.75 4.1875C9.75 4.73438 9.32031 5.125 8.8125 5.125H5.6875C5.49219 5.125 5.375 5.28125 5.375 5.4375V8.48438C5.375 9.38281 4.98438 10.2812 4.35938 10.9062L3.22656 12L4.35938 13.1328C4.98438 13.7578 5.375 14.6562 5.375 15.5547V18.5625C5.375 18.7578 5.49219 18.875 5.6875 18.875H8.8125C9.32031 18.875 9.75 19.3047 9.75 19.8125C9.75 20.3594 9.32031 20.75 8.8125 20.75H5.6875C4.47656 20.75 3.5 19.7734 3.5 18.5625V15.5547C3.5 15.125 3.30469 14.7344 3.03125 14.4609L1.27344 12.6641C1.07812 12.5078 1 12.2734 1 12C1 11.7656 1.07812 11.5312 1.27344 11.3359L3.03125 9.57812C3.30469 9.30469 3.5 8.91406 3.5 8.48438V5.4375C3.5 4.26562 4.47656 3.25 5.6875 3.25H8.8125ZM22.7266 11.3359C22.8828 11.5312 23 11.7656 23 12C23 12.2734 22.8828 12.5078 22.7266 12.6641L20.9297 14.4609C20.6562 14.7344 20.5 15.125 20.5 15.5547V18.5625C20.5 19.7734 19.4844 20.75 18.3125 20.75H15.1484C14.6406 20.75 14.25 20.2812 14.25 19.8125C14.25 19.3047 14.6406 18.875 15.1875 18.875H18.3125C18.4688 18.875 18.625 18.7578 18.625 18.5625V15.5547C18.625 14.6562 18.9766 13.7578 19.5625 13.1328L20.6953 12L19.6016 10.9062C18.9766 10.2812 18.625 9.38281 18.625 8.48438V5.4375C18.625 5.28125 18.4688 5.125 18.3125 5.125H15.1484C14.6406 5.125 14.25 4.65625 14.25 4.1875C14.25 3.67969 14.6406 3.25 15.1875 3.25H18.3125C19.4844 3.25 20.5 4.26562 20.5 5.4375V8.48438C20.5 8.91406 20.6562 9.30469 20.9297 9.57812L22.7266 11.3359Z"/>
</svg>