<svg xmlns="http://www.w3.org/2000/svg" width="24" height="24" fill="currentcolor" class="icon-chart-line-down-outline" viewBox="0 0 24 24">
  <path d="M3.875 17.9375C3.875 18.4844 4.26562 18.875 4.8125 18.875H21.0625C21.5703 18.875 22 19.3047 22 19.8125C22 20.3594 21.5703 20.75 21.0625 20.75H4.8125C3.25 20.75 2 19.5 2 17.9375V4.1875C2 3.67969 2.39062 3.25 2.9375 3.25C3.44531 3.25 3.875 3.67969 3.875 4.1875V17.9375ZM14.5 13.5625C14.5 13.0547 14.8906 12.625 15.4375 12.625H17.5469L13.875 8.95312L10.75 12.0391C10.3984 12.4297 9.8125 12.4297 9.46094 12.0391L6.33594 8.91406C5.94531 8.5625 5.94531 7.97656 6.33594 7.58594C6.6875 7.23438 7.27344 7.23438 7.625 7.58594L10.0859 10.0859L13.2109 6.96094C13.5625 6.60938 14.1484 6.60938 14.5 6.96094L18.875 11.3359V9.1875C18.875 8.67969 19.2656 8.25 19.8125 8.25C20.3203 8.25 20.75 8.67969 20.75 9.1875V13.5625C20.75 14.1094 20.3203 14.5 19.8125 14.5H15.4375C14.8906 14.5 14.5 14.1094 14.5 13.5625Z"/>
</svg>