<svg xmlns="http://www.w3.org/2000/svg" width="24" height="24" fill="currentcolor" class="icon-chart-line-up-outline" viewBox="0 0 24 24">
  <path d="M3.875 17.9375C3.875 18.4844 4.26562 18.875 4.8125 18.875H21.0625C21.5703 18.875 22 19.3047 22 19.8125C22 20.3594 21.5703 20.75 21.0625 20.75H4.8125C3.25 20.75 2 19.5 2 17.9375V4.1875C2 3.67969 2.39062 3.25 2.9375 3.25C3.44531 3.25 3.875 3.67969 3.875 4.1875V17.9375ZM15.4375 7H19.8125C20.3203 7 20.75 7.42969 20.75 7.9375V12.3125C20.75 12.8594 20.3203 13.25 19.8125 13.25C19.2656 13.25 18.875 12.8594 18.875 12.3125V10.2031L14.5 14.5391C14.1484 14.9297 13.5625 14.9297 13.2109 14.5391L10.0859 11.4531L7.625 13.9141C7.27344 14.3047 6.6875 14.3047 6.33594 13.9141C5.94531 13.5625 5.94531 12.9766 6.33594 12.5859L9.46094 9.46094C9.8125 9.10938 10.3984 9.10938 10.75 9.46094L13.875 12.5859L17.5469 8.875H15.4375C14.8906 8.875 14.5 8.48438 14.5 7.9375C14.5 7.42969 14.8906 7 15.4375 7Z"/>
</svg>