<svg xmlns="http://www.w3.org/2000/svg" width="24" height="24" fill="currentcolor" class="icon-chassis-icon-outline" viewBox="0 0 24 24">
  <path d="M10.96 9.12012V9.93164H7.87305C7.47371 9.93165 7.27352 10.1294 7.27344 10.5244V13.4756C7.27352 13.8706 7.47371 14.0684 7.87305 14.0684H10.96V14.8799L10.2695 15.3828H7.80762C6.43593 15.3827 5.75006 14.7037 5.75 13.3467V10.6533C5.75006 9.29631 6.43593 8.6173 7.80762 8.61719H10.2695L10.96 9.12012ZM15.085 10.834 16.6484 8.61719H18.0547L18.1855 8.875 15.958 11.9551 18.25 15.125 18.1328 15.3828H16.7129L15.085 13.0762 13.457 15.3828H12.0508L11.9336 15.125 14.2256 11.9551 11.998 8.875 12.1289 8.61719H13.5352L15.085 10.834Z"/>
  <path fill-rule="evenodd" d="M18 2C20.2091 2 22 3.79086 22 6V18C22 20.2091 20.2091 22 18 22H6C3.79086 22 2 20.2091 2 18V6C2 3.79086 3.79086 2 6 2H18ZM6 3.75C4.75736 3.75 3.75 4.75736 3.75 6V18C3.75 19.2426 4.75736 20.25 6 20.25H18C19.2426 20.25 20.25 19.2426 20.25 18V6C20.25 4.75736 19.2426 3.75 18 3.75H6Z"/>
</svg>