<svg xmlns="http://www.w3.org/2000/svg" width="24" height="24" fill="currentcolor" class="icon-chassis-icon-solid" viewBox="0 0 24 24">
  <path fill-rule="evenodd" d="M18 2C20.2091 2 22 3.79086 22 6V18C22 20.2091 20.2091 22 18 22H6C3.79086 22 2 20.2091 2 18V6C2 3.79086 3.79086 2 6 2H18ZM7.80762 8.61719C6.43593 8.6173 5.75006 9.29631 5.75 10.6533V13.3467C5.75006 14.7037 6.43593 15.3827 7.80762 15.3828H10.2695L10.96 14.8799V14.0684H7.87305C7.47371 14.0684 7.27352 13.8706 7.27344 13.4756V10.5244C7.27352 10.1294 7.47371 9.93165 7.87305 9.93164H10.96V9.12012L10.2695 8.61719H7.80762ZM12.1289 8.61719L11.998 8.875L14.2256 11.9551L11.9336 15.125L12.0508 15.3828H13.457L15.085 13.0762L16.7129 15.3828H18.1328L18.25 15.125L15.958 11.9551L18.1855 8.875L18.0547 8.61719H16.6484L15.085 10.834L13.5352 8.61719H12.1289Z"/>
</svg>