<svg xmlns="http://www.w3.org/2000/svg" width="24" height="24" fill="currentcolor" class="icon-circle-outline" viewBox="0 0 24 24">
  <path d="M20.125 11.9805C20.125 9.08984 18.5625 6.43359 16.0625 4.94922C13.5234 3.50391 10.4375 3.50391 7.9375 4.94922C5.39844 6.43359 3.875 9.08984 3.875 11.9805C3.875 14.9102 5.39844 17.5664 7.9375 19.0508C10.4375 20.4961 13.5234 20.4961 16.0625 19.0508C18.5625 17.5664 20.125 14.9102 20.125 11.9805ZM2 11.9805C2 8.42578 3.875 5.14453 7 3.34766C10.0859 1.55078 13.875 1.55078 17 3.34766C20.0859 5.14453 22 8.42578 22 11.9805C22 15.5742 20.0859 18.8555 17 20.6523C13.875 22.4492 10.0859 22.4492 7 20.6523C3.875 18.8555 2 15.5742 2 11.9805Z"/>
</svg>