<svg xmlns="http://www.w3.org/2000/svg" width="24" height="24" fill="currentcolor" class="icon-circle-dot-solid" viewBox="0 0 24 24">
  <path d="M12.0195 22C8.42578 22 5.14453 20.125 3.34766 17C1.55078 13.9141 1.55078 10.125 3.34766 7C5.14453 3.91406 8.42578 2 12.0195 2C15.5742 2 18.8555 3.91406 20.6523 7C22.4492 10.125 22.4492 13.9141 20.6523 17C18.8555 20.125 15.5742 22 12.0195 22ZM12.0195 8.25C10.6523 8.25 9.44141 8.99219 8.73828 10.125C8.07422 11.2969 8.07422 12.7422 8.73828 13.875C9.44141 15.0469 10.6523 15.75 12.0195 15.75C13.3477 15.75 14.5586 15.0469 15.2617 13.875C15.9258 12.7422 15.9258 11.2969 15.2617 10.125C14.5586 8.99219 13.3477 8.25 12.0195 8.25Z"/>
</svg>