<svg xmlns="http://www.w3.org/2000/svg" width="24" height="24" fill="currentcolor" class="icon-code-outline" viewBox="0 0 24 24">
  <path d="M3.51562 12L9.6875 17.8984C10.0781 18.25 10.0781 18.8359 9.72656 19.2266C9.375 19.6172 8.78906 19.6172 8.39844 19.2656L1.52344 12.7031C1.32812 12.5078 1.25 12.2734 1.25 12C1.25 11.7656 1.32812 11.5313 1.52344 11.3359L8.39844 4.77345C8.78906 4.42188 9.375 4.42188 9.72656 4.81251C10.0781 5.20313 10.0781 5.78907 9.6875 6.14063L3.51562 12ZM15.2734 6.14063C14.8828 5.78907 14.8828 5.20313 15.2344 4.81251C15.5859 4.42188 16.1719 4.42188 16.5625 4.77345L23.4375 11.3359C23.6328 11.5313 23.75 11.7656 23.75 12C23.75 12.2734 23.6328 12.5078 23.4375 12.7031L16.5625 19.2656C16.1719 19.6172 15.5859 19.6172 15.2344 19.2266C14.8828 18.8359 14.8828 18.25 15.2734 17.8984L21.4453 12L15.2734 6.14063Z"/>
</svg>