<svg xmlns="http://www.w3.org/2000/svg" width="24" height="24" fill="currentcolor" class="icon-film-solid" viewBox="0 0 24 24">
  <path d="M20.0859 3.25C21.1406 3.25 21.9609 4.10938 21.9609 5.125V18.875C21.9609 19.9297 21.1016 20.75 20.0859 20.75H3.83594C2.82031 20.75 2 19.9297 2 18.875V5.125C2 4.10938 2.82031 3.25 3.83594 3.25H20.0859ZM6.33594 17.9375L6.29688 16.0625C6.29688 15.9062 6.14062 15.75 5.98438 15.75H4.14844C3.95312 15.75 3.83594 15.9062 3.83594 16.0625V17.9375C3.83594 18.1328 3.95312 18.25 4.14844 18.25H6.02344C6.17969 18.25 6.33594 18.1328 6.33594 17.9375ZM6.33594 12.9375H6.29688V11.0625C6.29688 10.9062 6.14062 10.75 5.98438 10.75H4.14844C3.95312 10.75 3.83594 10.9062 3.83594 11.0625V12.9375C3.83594 13.1328 3.95312 13.25 4.14844 13.25H6.02344C6.17969 13.25 6.33594 13.1328 6.33594 12.9375ZM6.33594 7.9375L6.29688 6.0625C6.29688 5.90625 6.14062 5.75 5.98438 5.75H4.14844C3.95312 5.75 3.83594 5.90625 3.83594 6.0625V7.9375C3.83594 8.13281 3.95312 8.25 4.14844 8.25H6.02344C6.17969 8.25 6.33594 8.13281 6.33594 7.9375ZM15.7109 17.625V13.875C15.7109 13.5625 15.3984 13.25 15.0859 13.25H8.83594C8.48438 13.25 8.21094 13.5625 8.21094 13.875V17.625C8.21094 17.9766 8.48438 18.25 8.83594 18.25H15.0859C15.3984 18.25 15.7109 17.9766 15.7109 17.625ZM15.7109 10.125V6.375C15.7109 6.0625 15.3984 5.75 15.0859 5.75H8.83594C8.48438 5.75 8.21094 6.0625 8.21094 6.375V10.125C8.21094 10.4766 8.48438 10.75 8.83594 10.75H15.0859C15.3984 10.75 15.7109 10.4766 15.7109 10.125ZM20.0859 17.9375H20.125V16.0625C20.125 15.9062 19.9688 15.75 19.8125 15.75H17.9375C17.7812 15.75 17.625 15.9062 17.625 16.0625V17.9375C17.625 18.1328 17.7422 18.25 17.9375 18.25H19.7734C19.9297 18.25 20.0859 18.1328 20.0859 17.9375ZM20.0859 12.9375V11.0625C20.0859 10.9062 19.9297 10.75 19.7734 10.75H17.9375C17.7422 10.75 17.625 10.9062 17.625 11.0625V12.9375C17.625 13.1328 17.7422 13.25 17.9375 13.25H19.7734C19.9297 13.25 20.0859 13.1328 20.0859 12.9375ZM20.0859 7.9375H20.0469V6.0625C20.0469 5.90625 19.8906 5.75 19.7344 5.75H17.8984C17.7422 5.75 17.625 5.90625 17.625 6.0625V7.9375C17.625 8.13281 17.7422 8.25 17.9375 8.25H19.7734C19.9297 8.25 20.0859 8.13281 20.0859 7.9375Z"/>
</svg>