<svg xmlns="http://www.w3.org/2000/svg" width="24" height="24" fill="currentcolor" class="icon-film-outline" viewBox="0 0 24 24">
  <path d="M19.5 3.25C20.8672 3.25 22 4.38281 22 5.75V18.25C22 19.6562 20.8672 20.75 19.5 20.75H4.5C3.09375 20.75 2 19.6562 2 18.25V5.75C2 4.38281 3.09375 3.25 4.5 3.25H19.5ZM6.375 18.875V15.4375H3.875V18.25C3.875 18.6016 4.14844 18.875 4.5 18.875H6.375ZM6.375 13.5625V10.4375H3.875V13.5625H6.375ZM6.375 8.5625V5.125H4.5C4.14844 5.125 3.875 5.4375 3.875 5.75V8.5625H6.375ZM15.75 18.875V12.9375H8.25V18.875H15.75ZM15.75 11.0625V5.125H8.25V11.0625H15.75ZM20.125 18.25V15.4375H17.625V18.875H19.5C19.8125 18.875 20.125 18.6016 20.125 18.25ZM20.125 13.5625V10.4375H17.625V13.5625H20.125ZM20.125 8.5625V5.75C20.125 5.4375 19.8125 5.125 19.5 5.125H17.625V8.5625H20.125Z"/>
</svg>