<svg xmlns="http://www.w3.org/2000/svg" width="24" height="24" fill="currentcolor" class="icon-globe-solid" viewBox="0 0 24 24">
  <path d="M15.75 12C15.75 12.8984 15.6719 13.7188 15.5938 14.5H8.36719C8.28906 13.7188 8.21094 12.8984 8.21094 12C8.21094 11.1406 8.28906 10.3203 8.36719 9.5H15.5938C15.6719 10.3203 15.75 11.1406 15.75 12ZM21.6484 9.5C21.8828 10.3203 22 11.1406 22 12C22 12.8984 21.8828 13.7188 21.6484 14.5H16.8438C16.9219 13.7188 17 12.8594 17 12C17 11.1406 16.9219 10.3203 16.8438 9.5H21.6484ZM21.2578 8.25H16.6875C16.2969 5.78906 15.5156 3.67969 14.5391 2.35156C17.5859 3.17188 20.0859 5.35938 21.2578 8.25ZM15.4375 8.25H8.52344C8.75781 6.84375 9.14844 5.59375 9.57812 4.57812C10.0078 3.64062 10.4375 2.97656 10.9062 2.54688C11.3359 2.15625 11.6875 2 12 2C12.2734 2 12.625 2.15625 13.0547 2.54688C13.5234 2.97656 13.9531 3.64062 14.3828 4.57812C14.8125 5.59375 15.2031 6.84375 15.4375 8.25ZM2.70312 8.25C3.875 5.35938 6.375 3.17188 9.42188 2.35156C8.44531 3.67969 7.66406 5.78906 7.27344 8.25H2.70312ZM7.11719 9.5C7.03906 10.3203 6.96094 11.1406 6.96094 12C6.96094 12.8594 7.03906 13.7188 7.11719 14.5H2.3125C2.07812 13.7188 2 12.8984 2 12C2 11.1406 2.07812 10.3203 2.3125 9.5H7.11719ZM9.57812 19.4609C9.14844 18.4453 8.75781 17.1953 8.52344 15.75H15.4375C15.2031 17.1953 14.8125 18.4453 14.3828 19.4609C13.9531 20.3984 13.5234 21.0625 13.0547 21.4922C12.625 21.8828 12.2734 22 11.9609 22C11.6875 22 11.3359 21.8828 10.9062 21.4922C10.4375 21.0625 10.0078 20.3984 9.57812 19.4609ZM9.42188 21.6875C6.375 20.8672 3.875 18.6797 2.70312 15.75H7.27344C7.66406 18.25 8.44531 20.3594 9.42188 21.6875ZM14.5391 21.6875C15.5156 20.3594 16.2969 18.25 16.6875 15.75H21.2578C20.0859 18.6797 17.5859 20.8672 14.5391 21.6875Z"/>
</svg>