<svg xmlns="http://www.w3.org/2000/svg" width="24" height="24" fill="currentcolor" class="icon-grid-outline" viewBox="0 0 24 24">
  <path d="M2.5 4.375C2.5 3.35938 3.32031 2.5 4.375 2.5H9.125C10.1406 2.5 11 3.35938 11 4.375V9.125C11 10.1797 10.1406 11 9.125 11H4.375C3.32031 11 2.5 10.1797 2.5 9.125V4.375ZM4.375 9.125H9.125V4.375H4.375V9.125ZM2.5 14.875C2.5 13.8594 3.32031 13 4.375 13H9.125C10.1406 13 11 13.8594 11 14.875V19.625C11 20.6797 10.1406 21.5 9.125 21.5H4.375C3.32031 21.5 2.5 20.6797 2.5 19.625V14.875ZM4.375 19.625H9.125V14.875H4.375V19.625ZM19.625 2.5C20.6406 2.5 21.5 3.35938 21.5 4.375V9.125C21.5 10.1797 20.6406 11 19.625 11H14.875C13.8203 11 13 10.1797 13 9.125V4.375C13 3.35938 13.8203 2.5 14.875 2.5H19.625ZM19.625 4.375H14.875V9.125H19.625V4.375ZM13 14.875C13 13.8594 13.8203 13 14.875 13H19.625C20.6406 13 21.5 13.8594 21.5 14.875V19.625C21.5 20.6797 20.6406 21.5 19.625 21.5H14.875C13.8203 21.5 13 20.6797 13 19.625V14.875ZM14.875 19.625H19.625V14.875H14.875V19.625Z"/>
</svg>