<svg xmlns="http://www.w3.org/2000/svg" width="24" height="24" fill="currentcolor" class="icon-heart-half-solid" viewBox="0 0 24 24">
  <path d="M6.64844 3.75779C8.40625 3.44529 10.2422 4.03122 11.4922 5.28122L11.9609 5.74997L12.4297 5.32029C13.7188 4.03122 15.5547 3.44529 17.3125 3.75779C20.0078 4.18747 22 6.53122 22 9.2656V9.46091C22 11.1015 21.2969 12.664 20.125 13.7578L13.0547 20.3593C12.7812 20.6328 12.3906 20.75 12 20.75C11.5703 20.75 11.1797 20.6328 10.9062 20.3593L3.83594 13.7578C2.66406 12.664 2 11.1015 2 9.46091V9.2656C2 6.53122 3.95312 4.18747 6.64844 3.75779ZM11.9609 9.30466V17.9375L18.4062 11.9218C19.1094 11.2968 19.5 10.3984 19.5 9.46091V9.2656C19.5 7.74216 18.4062 6.4531 16.9219 6.21872C15.9062 6.02341 14.9297 6.37497 14.2266 7.0781L11.9609 9.30466Z"/>
</svg>