<svg xmlns="http://www.w3.org/2000/svg" width="24" height="24" fill="currentcolor" class="icon-history-cards-solid" viewBox="0 0 24 24">
  <path d="M22 19.5C22 20.9062 20.8672 22 19.5 22H4.5C3.09375 22 2 20.9062 2 19.5V10.75C2 9.38281 3.09375 8.25 4.5 8.25H19.5C20.8672 8.25 22 9.38281 22 10.75V19.5ZM19.1875 5.125C19.6953 5.125 20.125 5.55469 20.125 6.0625C20.125 6.60938 19.6953 7 19.1875 7H4.8125C4.26562 7 3.875 6.60938 3.875 6.0625C3.875 5.55469 4.26562 5.125 4.8125 5.125H19.1875ZM17.3125 2C17.8203 2 18.25 2.42969 18.25 2.9375C18.25 3.48438 17.8203 3.875 17.3125 3.875H6.6875C6.14062 3.875 5.75 3.48438 5.75 2.9375C5.75 2.42969 6.14062 2 6.6875 2H17.3125Z"/>
</svg>