<svg xmlns="http://www.w3.org/2000/svg" width="24" height="24" fill="currentcolor" class="icon-joystick-solid" viewBox="0 0 24 24">
  <path d="M19.5 15.75C20.1641 15.75 20.75 16.3359 20.75 17V20.75C20.75 21.4531 20.1641 22 19.5 22H4.5C3.79688 22 3.25 21.4531 3.25 20.75V17C3.25 16.3359 3.79688 15.75 4.5 15.75L5.75 15.7891V15.125C5.75 14.8125 6.02344 14.5 6.375 14.5H7.625C7.9375 14.5 8.25 14.8125 8.25 15.125V15.7891L19.5 15.75ZM10.75 10.5547C8.91406 10.0078 7.58594 8.36719 7.58594 6.375C7.58594 3.99219 9.57812 2.03906 12 2.03906C14.3828 2.03906 16.375 3.99219 16.375 6.375C16.375 8.36719 15.0469 10.0469 13.25 10.5547V14.5H10.75V10.5547ZM11.0625 3.875C10.5156 3.875 10.125 4.30469 10.125 4.8125C10.125 5.35938 10.5156 5.75 11.0625 5.75C11.5703 5.75 12 5.35938 12 4.8125C12 4.30469 11.5703 3.875 11.0625 3.875Z"/>
</svg>