<svg xmlns="http://www.w3.org/2000/svg" width="24" height="24" fill="currentcolor" class="icon-lightning-solid" viewBox="0 0 24 24">
  <path d="M14.375 10.75H18.75C19.2578 10.75 19.7266 11.1015 19.8828 11.5703C20.0781 12.0781 19.9609 12.625 19.5703 12.9765L9.57032 21.7265C9.10157 22.0781 8.47657 22.1171 8.00782 21.7656C7.53907 21.4531 7.34376 20.8281 7.57813 20.2812L10.5859 13.25H6.21095C5.70313 13.25 5.23438 12.9375 5.07813 12.4687C4.88282 11.9609 5.00001 11.414 5.39063 11.0625L15.3906 2.31246C15.8594 1.9609 16.4844 1.92183 16.9531 2.2734C17.4219 2.5859 17.6172 3.2109 17.3828 3.75777L14.375 10.75Z"/>
</svg>