<svg xmlns="http://www.w3.org/2000/svg" width="24" height="24" fill="currentcolor" class="icon-list-square-outline" viewBox="0 0 24 24">
  <path d="M8.25 9.5C7.54688 9.5 7 8.95312 7 8.25C7 7.58594 7.54688 7 8.25 7C8.91406 7 9.5 7.58594 9.5 8.25C9.5 8.95312 8.91406 9.5 8.25 9.5ZM11.0625 8.25C11.0625 7.74219 11.4531 7.3125 12 7.3125H15.75C16.2578 7.3125 16.6875 7.74219 16.6875 8.25C16.6875 8.79688 16.2578 9.1875 15.75 9.1875H12C11.4531 9.1875 11.0625 8.79688 11.0625 8.25ZM11.0625 12C11.0625 11.4922 11.4531 11.0625 12 11.0625H15.75C16.2578 11.0625 16.6875 11.4922 16.6875 12C16.6875 12.5469 16.2578 12.9375 15.75 12.9375H12C11.4531 12.9375 11.0625 12.5469 11.0625 12ZM11.0625 15.75C11.0625 15.2422 11.4531 14.8125 12 14.8125H15.75C16.2578 14.8125 16.6875 15.2422 16.6875 15.75C16.6875 16.2969 16.2578 16.6875 15.75 16.6875H12C11.4531 16.6875 11.0625 16.2969 11.0625 15.75ZM8.25 10.75C8.91406 10.75 9.5 11.3359 9.5 12C9.5 12.7031 8.91406 13.25 8.25 13.25C7.54688 13.25 7 12.7031 7 12C7 11.3359 7.54688 10.75 8.25 10.75ZM8.25 17C7.54688 17 7 16.4531 7 15.75C7 15.0859 7.54688 14.5 8.25 14.5C8.91406 14.5 9.5 15.0859 9.5 15.75C9.5 16.4531 8.91406 17 8.25 17ZM3.25 5.75C3.25 4.38281 4.34375 3.25 5.75 3.25H18.25C19.6172 3.25 20.75 4.38281 20.75 5.75V18.25C20.75 19.6562 19.6172 20.75 18.25 20.75H5.75C4.34375 20.75 3.25 19.6562 3.25 18.25V5.75ZM5.125 5.75V18.25C5.125 18.6016 5.39844 18.875 5.75 18.875H18.25C18.5625 18.875 18.875 18.6016 18.875 18.25V5.75C18.875 5.4375 18.5625 5.125 18.25 5.125H5.75C5.39844 5.125 5.125 5.4375 5.125 5.75Z"/>
</svg>