<svg xmlns="http://www.w3.org/2000/svg" width="24" height="24" fill="currentcolor" class="icon-magic-outline" viewBox="0 0 24 24">
  <path d="M10.9375 2.19531C10.9766 2.07812 11.0938 2 11.25 2C11.3672 2 11.4844 2.07812 11.5234 2.19531L12.0703 3.67969L13.5547 4.22656C13.6719 4.26562 13.75 4.38281 13.75 4.5C13.75 4.65625 13.6719 4.77344 13.5547 4.8125L12.0703 5.35938L11.5234 6.80469C11.4844 6.92188 11.3672 7 11.25 7C11.0938 7 10.9766 6.92188 10.9375 6.80469L10.3906 5.35938L8.90625 4.8125C8.78906 4.77344 8.75 4.65625 8.75 4.5C8.75 4.38281 8.78906 4.26562 8.90625 4.22656L10.3906 3.67969L10.9375 2.19531ZM20.5859 2.58594L21.9141 3.91406C22.6562 4.65625 22.6562 5.82812 21.9141 6.57031L7.03125 21.4531C6.28906 22.1953 5.11719 22.1953 4.375 21.4531L3.04688 20.125C2.30469 19.3828 2.30469 18.2109 3.04688 17.4688L17.9297 2.58594C18.6719 1.84375 19.8438 1.84375 20.5859 2.58594ZM19.2578 3.875L14.9609 8.17188L16.3281 9.53906L20.5859 5.24219L19.2578 3.875ZM5.70312 20.125L15 10.8672L13.6328 9.5L4.375 18.7969L5.70312 20.125ZM1.52344 6.60938L3.75 5.75L4.57031 3.5625C4.60938 3.36719 4.80469 3.25 5 3.25C5.15625 3.25 5.35156 3.36719 5.39062 3.5625L6.25 5.75L8.4375 6.60938C8.63281 6.64844 8.75 6.84375 8.75 7C8.75 7.19531 8.63281 7.39062 8.4375 7.42969L6.25 8.25L5.39062 10.4766C5.35156 10.6328 5.15625 10.75 5 10.75C4.80469 10.75 4.60938 10.6328 4.57031 10.4766L3.75 8.25L1.52344 7.42969C1.32812 7.39062 1.25 7.19531 1.25 7C1.25 6.84375 1.32812 6.64844 1.52344 6.60938ZM15.2734 16.6094L17.5 15.75L18.3203 13.5625C18.3594 13.3672 18.5547 13.25 18.75 13.25C18.9062 13.25 19.1016 13.3672 19.1406 13.5625L20 15.75L22.1875 16.6094C22.3828 16.6484 22.5 16.8438 22.5 17C22.5 17.1953 22.3828 17.3906 22.1875 17.4297L20 18.25L19.1406 20.4766C19.1016 20.6328 18.9062 20.75 18.75 20.75C18.5547 20.75 18.3594 20.6328 18.3203 20.4766L17.5 18.25L15.2734 17.4297C15.0781 17.3906 15 17.1953 15 17C15 16.8438 15.0781 16.6484 15.2734 16.6094Z"/>
</svg>