<svg xmlns="http://www.w3.org/2000/svg" width="24" height="24" fill="currentcolor" class="icon-microchip" viewBox="0 0 24 24">
  <path d="M14.5 8.25C15.1641 8.25 15.75 8.83594 15.75 9.5V14.5C15.75 15.2031 15.1641 15.75 14.5 15.75H9.5C8.79688 15.75 8.25 15.2031 8.25 14.5V9.5C8.25 8.83594 8.79688 8.25 9.5 8.25H14.5ZM13.875 13.875V10.125H10.125V13.875H13.875ZM21.0625 12.9375H19.5V14.8125H21.0625C21.5703 14.8125 22 15.2422 22 15.75C22 16.2969 21.5703 16.6875 21.0625 16.6875H19.5V17C19.5 18.4062 18.3672 19.5 17 19.5H16.6875V21.0625C16.6875 21.6094 16.2578 22 15.75 22C15.2031 22 14.8125 21.6094 14.8125 21.0625V19.5H12.9375V21.0625C12.9375 21.6094 12.5078 22 12 22C11.4531 22 11.0625 21.6094 11.0625 21.0625V19.5H9.1875V21.0625C9.1875 21.6094 8.75781 22 8.25 22C7.70312 22 7.3125 21.6094 7.3125 21.0625V19.5H7C5.59375 19.5 4.5 18.4062 4.5 17V16.6875H2.9375C2.39062 16.6875 2 16.2969 2 15.75C2 15.2422 2.39062 14.8125 2.9375 14.8125H4.5V12.9375H2.9375C2.39062 12.9375 2 12.5469 2 12C2 11.4922 2.39062 11.0625 2.9375 11.0625H4.5V9.1875H2.9375C2.39062 9.1875 2 8.79688 2 8.25C2 7.74219 2.39062 7.3125 2.9375 7.3125H4.5V7C4.5 5.63281 5.59375 4.5 7 4.5H7.3125V2.9375C7.3125 2.42969 7.70312 2 8.25 2C8.75781 2 9.1875 2.42969 9.1875 2.9375V4.5H11.0625V2.9375C11.0625 2.42969 11.4531 2 12 2C12.5078 2 12.9375 2.42969 12.9375 2.9375V4.5H14.8125V2.9375C14.8125 2.42969 15.2031 2 15.75 2C16.2578 2 16.6875 2.42969 16.6875 2.9375V4.5H17C18.3672 4.5 19.5 5.63281 19.5 7V7.3125H21.0625C21.5703 7.3125 22 7.74219 22 8.25C22 8.79688 21.5703 9.1875 21.0625 9.1875H19.5V11.0625H21.0625C21.5703 11.0625 22 11.4922 22 12C22 12.5469 21.5703 12.9375 21.0625 12.9375ZM17.625 17V7C17.625 6.6875 17.3125 6.375 17 6.375H7C6.64844 6.375 6.375 6.6875 6.375 7V17C6.375 17.3516 6.64844 17.625 7 17.625H17C17.3125 17.625 17.625 17.3516 17.625 17Z"/>
</svg>