<svg xmlns="http://www.w3.org/2000/svg" width="24" height="24" fill="currentcolor" class="icon-music-outline" viewBox="0 0 24 24">
  <path d="M20.75 2C21.4141 2 22 2.58594 22 3.25V16.3359C21.9609 16.4531 21.9609 16.5703 21.9609 16.6875C21.7266 18.2109 20.1641 19.4609 18.2109 19.4609C16.1406 19.4609 14.5 18.0547 14.5 16.375C14.5 14.6562 16.1406 13.25 18.2109 13.25C18.875 13.25 19.5391 13.4062 20.125 13.7188V8.67969L9.5 12L9.46094 18.9141C9.46094 18.9922 9.42188 19.1484 9.38281 19.2266C9.1875 20.7891 7.625 22 5.71094 22C3.64062 22 2 20.6328 2 18.875C2 17.1562 3.64062 15.75 5.75 15.75C6.375 15.75 7.03906 15.9062 7.625 16.2188V7C7.625 6.45312 7.97656 5.98438 8.48438 5.82812L20.3594 2.07812C20.4766 2.03906 20.5938 2 20.75 2ZM5.75 20.125C6.84375 20.125 7.625 19.5 7.625 18.875C7.625 18.2891 6.84375 17.625 5.75 17.625C4.61719 17.625 3.875 18.2891 3.875 18.875C3.875 19.5 4.61719 20.125 5.75 20.125ZM20.125 16.375C20.125 15.7891 19.3438 15.125 18.25 15.125C17.1172 15.125 16.375 15.7891 16.375 16.375C16.375 17 17.1172 17.625 18.25 17.625C19.3438 17.625 20.125 17 20.125 16.375ZM20.125 6.6875V4.10938L9.5 7.46875V10.0469L20.125 6.6875Z"/>
</svg>