<svg xmlns="http://www.w3.org/2000/svg" width="24" height="24" fill="currentcolor" class="icon-person-walking-briefcase-outline" viewBox="0 0 24 24">
  <path d="M12.6898 6.99414C14.6039 6.99414 16.2835 8.24249 16.8304 10.0762L17.2992 11.5195L18.3539 12.5732C18.4299 12.6493 18.491 12.7327 18.5375 12.8203H18.849C19.2964 12.8205 19.7083 13.1793 19.7084 13.5693V14.3184H21.141C21.5882 14.3187 22.0002 14.6775 22.0003 15.0674V19.5625C21.9998 19.9677 21.588 20.3112 21.141 20.3115H18.1097L17.2894 16.7871L17.2875 16.7803C17.1644 16.2886 16.8695 15.8291 16.475 15.4912L16.4642 15.4824L15.1507 14.2959L15.1253 14.1807V13.5693C15.1254 13.1895 15.4984 12.8396 15.9476 12.8213L16.723 13.5693H15.9847V14.3184H18.849V13.5693H18.5853C18.548 13.663 18.4939 13.7517 18.4222 13.8311L18.2855 13.9678C17.9302 14.288 17.3945 14.2653 17.0648 13.8994L15.8929 12.7676C15.7367 12.6115 15.5804 12.3775 15.5023 12.1436L15.1507 10.8955L13.9789 14.5625L15.932 16.123C16.0688 16.2401 16.1859 16.3771 16.2787 16.5234C16.3326 16.6085 16.377 16.6974 16.4134 16.7871C16.4396 16.8516 16.4625 16.9162 16.4789 16.9814L17.3773 20.8438C17.4945 21.3509 17.182 21.8585 16.6742 21.9756C16.1665 22.0926 15.6587 21.7805 15.5414 21.2734L15.3207 20.3115L14.682 17.5283L12.8334 16.0186L10.6195 14.2119C9.87739 13.6268 9.60405 12.6903 9.91636 11.832L10.7367 9.2959L9.91636 9.68555C9.17424 9.99764 8.62733 10.6221 8.39292 11.3633L8.27574 11.6758C8.11942 12.1829 7.57256 12.4168 7.10386 12.2607C6.59621 12.1047 6.36194 11.5589 6.51792 11.0908L6.59605 10.7783C7.02574 9.52986 7.92417 8.51495 9.13511 7.96875L9.95542 7.61816C10.8148 7.22802 11.7523 6.99414 12.6898 6.99414ZM11.557 16.5918L10.8148 18.4639C10.7367 18.6589 10.6195 18.8547 10.4632 19.0107L7.72886 21.7021C7.39918 22.068 6.8635 22.0908 6.50816 21.7705L6.37144 21.6338C6.05092 21.2788 6.07362 20.7418 6.4398 20.376L9.09605 17.7227L10.0335 15.3818L11.557 16.5918ZM13.9339 17.9922L14.4662 20.3115H13.6927C13.2275 20.3115 12.8339 19.9679 12.8334 19.5625V17.0928L13.9339 17.9922ZM11.6742 12.417C11.6352 12.534 11.6744 12.6895 11.7914 12.7676L12.4164 13.2754L13.7054 9.21777C13.7054 9.17876 13.7054 9.1396 13.7445 9.10059C13.4711 8.98355 13.1585 8.90527 12.846 8.90527L11.6742 12.417ZM18.6341 13.1133C18.633 13.1061 18.6325 13.0989 18.6312 13.0918C18.6325 13.0989 18.633 13.1061 18.6341 13.1133ZM14.2914 2C15.307 2 16.1664 2.85867 16.1664 3.87305C16.1662 4.92627 15.3069 5.74512 14.2914 5.74512C13.2368 5.74512 12.4165 4.92627 12.4164 3.87305C12.4164 2.85867 13.2367 2 14.2914 2Z"/>
</svg>