<svg xmlns="http://www.w3.org/2000/svg" width="24" height="24" fill="currentcolor" class="icon-plug-outline" viewBox="0 0 24 24">
  <path d="M8.75 2C9.25781 2 9.6875 2.42969 9.6875 2.9375V6.375H7.8125V2.9375C7.8125 2.42969 8.20312 2 8.75 2ZM16.25 2C16.7578 2 17.1875 2.42969 17.1875 2.9375V6.375H15.3125V2.9375C15.3125 2.42969 15.7031 2 16.25 2ZM19.0625 7.625C19.5703 7.625 20 8.05469 20 8.5625C20 9.10938 19.5703 9.5 19.0625 9.5H18.75V12C18.75 15.1641 16.4062 17.7422 13.4375 18.2109V22H11.5625V18.2109C8.55469 17.7422 6.25 15.1641 6.25 12V9.5H5.9375C5.39062 9.5 5 9.10938 5 8.5625C5 8.05469 5.39062 7.625 5.9375 7.625H19.0625ZM12.5 16.375C14.8828 16.375 16.875 14.4219 16.875 12V9.5H8.125V12C8.125 14.4219 10.0781 16.375 12.5 16.375Z"/>
</svg>