<svg xmlns="http://www.w3.org/2000/svg" width="24" height="24" fill="currentcolor" class="icon-swatchbook-solid" viewBox="0 0 24 24">
  <path d="M2 3.25C2 2.58594 2.54688 2 3.25 2H8.25C8.91406 2 9.5 2.58594 9.5 3.25V18.25C9.5 20.3203 7.82031 22 5.75 22C3.64062 22 2 20.3203 2 18.25V3.25ZM7 4.5H4.5V7H7V4.5ZM4.5 12H7V9.5H4.5V12ZM5.75 19.1875C6.25781 19.1875 6.6875 18.7969 6.6875 18.25C6.6875 17.7422 6.25781 17.3125 5.75 17.3125C5.20312 17.3125 4.8125 17.7422 4.8125 18.25C4.8125 18.7969 5.20312 19.1875 5.75 19.1875ZM10.75 18.25V8.01562L13.6797 5.08594C14.1484 4.61719 14.9688 4.61719 15.4375 5.08594L18.9922 8.64062C19.4609 9.10938 19.4609 9.89062 18.9922 10.3984L10.7109 18.6406C10.7109 18.5234 10.75 18.4062 10.75 18.25ZM16.6094 14.5H20.75C21.4141 14.5 22 15.0859 22 15.75V20.75C22 21.4531 21.4141 22 20.75 22H9.10938L16.6094 14.5Z"/>
</svg>